<svg width="24" height="24" viewBox="0 0 24 24" fill="none" xmlns="http://www.w3.org/2000/svg">
<path d="M12.1607 10.8702C12.0607 10.8602 11.9407 10.8602 11.8307 10.8702C10.6829 10.8313 9.59535 10.3471 8.79833 9.52019C8.00132 8.69332 7.55744 7.58869 7.5607 6.44023C7.5607 3.99023 9.5407 2.00023 12.0007 2.00023C12.5831 1.98973 13.1619 2.09404 13.704 2.30721C14.2461 2.52039 14.7409 2.83825 15.1602 3.24265C15.5794 3.64705 15.9149 4.13006 16.1475 4.66412C16.3801 5.19818 16.5052 5.77282 16.5157 6.35523C16.5262 6.93765 16.4219 7.51642 16.2087 8.05852C15.9956 8.60062 15.6777 9.09543 15.2733 9.51468C14.8689 9.93394 14.3859 10.2694 13.8518 10.502C13.3178 10.7346 12.7431 10.8597 12.1607 10.8702ZM7.1607 14.5602C4.7407 16.1802 4.7407 18.8202 7.1607 20.4302C9.9107 22.2702 14.4207 22.2702 17.1707 20.4302C19.5907 18.8102 19.5907 16.1702 17.1707 14.5602C14.4307 12.7302 9.9207 12.7302 7.1607 14.5602Z" stroke="black" stroke-width="1.5" stroke-linecap="round" stroke-linejoin="round"/>
</svg>
