<svg width="24" height="24" viewBox="0 0 24 24" fill="none" xmlns="http://www.w3.org/2000/svg">
<path d="M2.52 7.11H21.48M8.52 2.11V6.97M15.48 2.11V6.52M22 9V15C22 15.22 22 15.44 21.98 15.65C21.5601 15.1324 21.0295 14.7155 20.4273 14.43C19.8251 14.1445 19.1665 13.9975 18.5 14C17.44 14 16.46 14.37 15.69 14.99C15.1605 15.4085 14.7331 15.942 14.4403 16.5501C14.1475 17.1583 13.9969 17.8251 14 18.5C14 19.91 14.64 21.16 15.65 21.98C15.44 22 15.22 22 15 22H9C4 22 2 20 2 15V9C2 4 4 2 9 2H15C20 2 22 4 22 9Z" stroke="#1A1A1A" stroke-width="1.5" stroke-linecap="round" stroke-linejoin="round"/>
<path d="M23 18.5C23 19.85 22.4 21.05 21.47 21.88C20.67 22.57 19.64 23 18.5 23C17.42 23 16.42 22.62 15.65 21.98C15.1325 21.5601 14.7156 21.0295 14.43 20.4273C14.1445 19.8251 13.9976 19.1665 14 18.5C14 17.08 14.65 15.81 15.69 14.99C16.4859 14.3484 17.4777 13.999 18.5 14C19.91 14 21.16 14.64 21.98 15.65C22.62 16.42 23 17.42 23 18.5Z" stroke="#1A1A1A" stroke-width="1.5" stroke-miterlimit="10" stroke-linecap="round" stroke-linejoin="round"/>
<path d="M18.7809 17.0901V18.7801L17.3809 19.6201" stroke="#1A1A1A" stroke-width="1.5" stroke-miterlimit="10" stroke-linecap="round" stroke-linejoin="round"/>
</svg>
